STARTFONT 2.1
FONT -FontForge-Magniflop-Medium-R-Normal--16-150-75-75-P-60-ISO10646-1
SIZE 15 75 75
FONTBOUNDINGBOX 11 11 0 0
COMMENT "Generated by fontforge, http://fontforge.sourceforge.net"
COMMENT "yuta"
STARTPROPERTIES 38
FOUNDRY "FontForge"
FAMILY_NAME "Magniflop"
WEIGHT_NAME "Medium"
SLANT "R"
SETWIDTH_NAME "Normal"
ADD_STYLE_NAME ""
PIXEL_SIZE 16
POINT_SIZE 150
RESOLUTION_X 75
RESOLUTION_Y 75
SPACING "P"
AVERAGE_WIDTH 60
CHARSET_REGISTRY "ISO10646"
CHARSET_ENCODING "1"
FONTNAME_REGISTRY ""
CHARSET_COLLECTIONS "ISO10646-1"
FONT_NAME "Magniflop"
FACE_NAME "Magniflop"
COPYRIGHT "yuta"
FONT_VERSION "001.000"
FONT_ASCENT 12
FONT_DESCENT 4
UNDERLINE_POSITION -2
UNDERLINE_THICKNESS 1
CAP_HEIGHT 4
RAW_ASCENT 750
RAW_DESCENT 250
NORM_SPACE 3
RELATIVE_WEIGHT 50
RELATIVE_SETWIDTH 50
SUPERSCRIPT_X 0
SUPERSCRIPT_Y 7
SUPERSCRIPT_SIZE 11
SUBSCRIPT_X 0
SUBSCRIPT_Y 2
SUBSCRIPT_SIZE 11
FIGURE_WIDTH 6
AVG_UPPERCASE_WIDTH 60
ENDPROPERTIES
CHARS 78
STARTCHAR space
ENCODING 32
SWIDTH 187 0
DWIDTH 3 0
BBX 1 1 0 0
BITMAP
00
ENDCHAR
STARTCHAR exclam
ENCODING 33
SWIDTH 375 0
DWIDTH 6 0
BBX 1 5 2 0
BITMAP
80
80
80
00
80
ENDCHAR
STARTCHAR quotedbl
ENCODING 34
SWIDTH 375 0
DWIDTH 6 0
BBX 3 2 0 3
BITMAP
A0
A0
ENDCHAR
STARTCHAR numbersign
ENCODING 35
SWIDTH 375 0
DWIDTH 6 0
BBX 5 5 0 0
BITMAP
50
F8
50
F8
50
ENDCHAR
STARTCHAR dollar
ENCODING 36
SWIDTH 375 0
DWIDTH 6 0
BBX 5 5 0 0
BITMAP
F8
A0
F8
28
F8
ENDCHAR
STARTCHAR percent
ENCODING 37
SWIDTH 375 0
DWIDTH 6 0
BBX 5 5 0 0
BITMAP
C8
D0
20
58
98
ENDCHAR
STARTCHAR ampersand
ENCODING 38
SWIDTH 375 0
DWIDTH 6 0
BBX 5 5 0 0
BITMAP
60
90
78
90
78
ENDCHAR
STARTCHAR quotesingle
ENCODING 39
SWIDTH 375 0
DWIDTH 6 0
BBX 1 2 0 3
BITMAP
80
80
ENDCHAR
STARTCHAR parenleft
ENCODING 40
SWIDTH 375 0
DWIDTH 6 0
BBX 2 5 3 0
BITMAP
40
80
80
80
40
ENDCHAR
STARTCHAR parenright
ENCODING 41
SWIDTH 375 0
DWIDTH 6 0
BBX 2 5 0 0
BITMAP
80
40
40
40
80
ENDCHAR
STARTCHAR asterisk
ENCODING 42
SWIDTH 375 0
DWIDTH 6 0
BBX 3 4 0 1
BITMAP
40
E0
40
A0
ENDCHAR
STARTCHAR plus
ENCODING 43
SWIDTH 375 0
DWIDTH 6 0
BBX 5 5 0 0
BITMAP
20
20
F8
20
20
ENDCHAR
STARTCHAR comma
ENCODING 44
SWIDTH 375 0
DWIDTH 6 0
BBX 2 3 0 0
BITMAP
C0
C0
40
ENDCHAR
STARTCHAR hyphen
ENCODING 45
SWIDTH 375 0
DWIDTH 6 0
BBX 5 1 0 2
BITMAP
F8
ENDCHAR
STARTCHAR period
ENCODING 46
SWIDTH 375 0
DWIDTH 6 0
BBX 1 1 0 0
BITMAP
80
ENDCHAR
STARTCHAR slash
ENCODING 47
SWIDTH 375 0
DWIDTH 6 0
BBX 3 5 0 0
BITMAP
20
20
40
80
80
ENDCHAR
STARTCHAR zero
ENCODING 48
SWIDTH 375 0
DWIDTH 6 0
BBX 5 5 0 0
BITMAP
F8
C8
A8
98
F8
ENDCHAR
STARTCHAR one
ENCODING 49
SWIDTH 375 0
DWIDTH 6 0
BBX 3 5 1 0
BITMAP
C0
40
40
40
E0
ENDCHAR
STARTCHAR two
ENCODING 50
SWIDTH 375 0
DWIDTH 6 0
BBX 5 5 0 0
BITMAP
F8
08
F8
80
F8
ENDCHAR
STARTCHAR three
ENCODING 51
SWIDTH 375 0
DWIDTH 6 0
BBX 5 5 0 0
BITMAP
F8
08
F8
08
F8
ENDCHAR
STARTCHAR four
ENCODING 52
SWIDTH 375 0
DWIDTH 6 0
BBX 5 5 0 0
BITMAP
88
88
F8
08
08
ENDCHAR
STARTCHAR five
ENCODING 53
SWIDTH 375 0
DWIDTH 6 0
BBX 5 5 0 0
BITMAP
F8
80
F8
08
F8
ENDCHAR
STARTCHAR six
ENCODING 54
SWIDTH 375 0
DWIDTH 6 0
BBX 5 5 0 0
BITMAP
F8
80
F8
88
F8
ENDCHAR
STARTCHAR seven
ENCODING 55
SWIDTH 375 0
DWIDTH 6 0
BBX 5 5 0 0
BITMAP
F8
08
08
08
08
ENDCHAR
STARTCHAR eight
ENCODING 56
SWIDTH 375 0
DWIDTH 6 0
BBX 5 5 0 0
BITMAP
F8
88
F8
88
F8
ENDCHAR
STARTCHAR nine
ENCODING 57
SWIDTH 375 0
DWIDTH 6 0
BBX 5 5 0 0
BITMAP
F8
88
F8
08
F8
ENDCHAR
STARTCHAR colon
ENCODING 58
SWIDTH 375 0
DWIDTH 6 0
BBX 1 3 2 1
BITMAP
80
00
80
ENDCHAR
STARTCHAR semicolon
ENCODING 59
SWIDTH 375 0
DWIDTH 6 0
BBX 2 5 0 0
BITMAP
C0
C0
00
C0
40
ENDCHAR
STARTCHAR less
ENCODING 60
SWIDTH 375 0
DWIDTH 6 0
BBX 3 5 2 0
BITMAP
20
40
80
40
20
ENDCHAR
STARTCHAR equal
ENCODING 61
SWIDTH 375 0
DWIDTH 6 0
BBX 5 3 0 1
BITMAP
F8
00
F8
ENDCHAR
STARTCHAR greater
ENCODING 62
SWIDTH 375 0
DWIDTH 6 0
BBX 3 5 0 0
BITMAP
80
40
20
40
80
ENDCHAR
STARTCHAR question
ENCODING 63
SWIDTH 375 0
DWIDTH 6 0
BBX 5 5 0 0
BITMAP
70
88
30
00
20
ENDCHAR
STARTCHAR at
ENCODING 64
SWIDTH 501 0
DWIDTH 8 0
BBX 7 5 0 0
BITMAP
44
9A
AA
9A
44
ENDCHAR
STARTCHAR A
ENCODING 65
SWIDTH 375 0
DWIDTH 6 0
BBX 5 5 0 0
BITMAP
F8
88
F8
88
88
ENDCHAR
STARTCHAR B
ENCODING 66
SWIDTH 375 0
DWIDTH 6 0
BBX 5 5 0 0
BITMAP
F0
88
F0
88
F0
ENDCHAR
STARTCHAR C
ENCODING 67
SWIDTH 375 0
DWIDTH 6 0
BBX 5 5 0 0
BITMAP
F8
88
80
88
F8
ENDCHAR
STARTCHAR D
ENCODING 68
SWIDTH 375 0
DWIDTH 6 0
BBX 5 5 0 0
BITMAP
F0
88
88
88
F0
ENDCHAR
STARTCHAR E
ENCODING 69
SWIDTH 375 0
DWIDTH 6 0
BBX 5 5 0 0
BITMAP
F8
80
F8
80
F8
ENDCHAR
STARTCHAR F
ENCODING 70
SWIDTH 375 0
DWIDTH 6 0
BBX 5 5 0 0
BITMAP
F8
80
F8
80
80
ENDCHAR
STARTCHAR G
ENCODING 71
SWIDTH 375 0
DWIDTH 6 0
BBX 5 5 0 0
BITMAP
F8
80
B8
88
F8
ENDCHAR
STARTCHAR H
ENCODING 72
SWIDTH 375 0
DWIDTH 6 0
BBX 5 5 0 0
BITMAP
88
88
F8
88
88
ENDCHAR
STARTCHAR I
ENCODING 73
SWIDTH 375 0
DWIDTH 6 0
BBX 3 5 1 0
BITMAP
E0
40
40
40
E0
ENDCHAR
STARTCHAR J
ENCODING 74
SWIDTH 375 0
DWIDTH 6 0
BBX 5 5 0 0
BITMAP
08
08
88
88
70
ENDCHAR
STARTCHAR K
ENCODING 75
SWIDTH 375 0
DWIDTH 6 0
BBX 5 5 0 0
BITMAP
88
90
E0
90
88
ENDCHAR
STARTCHAR L
ENCODING 76
SWIDTH 375 0
DWIDTH 6 0
BBX 5 5 0 0
BITMAP
80
80
80
80
F8
ENDCHAR
STARTCHAR M
ENCODING 77
SWIDTH 375 0
DWIDTH 6 0
BBX 5 5 0 0
BITMAP
88
D8
A8
88
88
ENDCHAR
STARTCHAR N
ENCODING 78
SWIDTH 375 0
DWIDTH 6 0
BBX 5 5 0 0
BITMAP
88
C8
A8
98
88
ENDCHAR
STARTCHAR O
ENCODING 79
SWIDTH 375 0
DWIDTH 6 0
BBX 5 5 0 0
BITMAP
F8
88
88
88
F8
ENDCHAR
STARTCHAR P
ENCODING 80
SWIDTH 375 0
DWIDTH 6 0
BBX 5 5 0 0
BITMAP
F8
88
F8
80
80
ENDCHAR
STARTCHAR Q
ENCODING 81
SWIDTH 375 0
DWIDTH 6 0
BBX 5 5 0 0
BITMAP
F8
88
98
88
F8
ENDCHAR
STARTCHAR R
ENCODING 82
SWIDTH 375 0
DWIDTH 6 0
BBX 5 5 0 0
BITMAP
F8
88
F0
88
88
ENDCHAR
STARTCHAR S
ENCODING 83
SWIDTH 375 0
DWIDTH 6 0
BBX 5 5 0 0
BITMAP
F8
80
F8
08
F8
ENDCHAR
STARTCHAR T
ENCODING 84
SWIDTH 375 0
DWIDTH 6 0
BBX 5 5 0 0
BITMAP
F8
20
20
20
20
ENDCHAR
STARTCHAR U
ENCODING 85
SWIDTH 375 0
DWIDTH 6 0
BBX 5 5 0 0
BITMAP
88
88
88
88
F8
ENDCHAR
STARTCHAR V
ENCODING 86
SWIDTH 375 0
DWIDTH 6 0
BBX 5 5 0 0
BITMAP
88
88
88
50
20
ENDCHAR
STARTCHAR W
ENCODING 87
SWIDTH 375 0
DWIDTH 6 0
BBX 5 5 0 0
BITMAP
88
88
A8
D8
88
ENDCHAR
STARTCHAR X
ENCODING 88
SWIDTH 375 0
DWIDTH 6 0
BBX 5 5 0 0
BITMAP
88
50
20
50
88
ENDCHAR
STARTCHAR Y
ENCODING 89
SWIDTH 375 0
DWIDTH 6 0
BBX 5 5 0 0
BITMAP
88
88
F8
20
20
ENDCHAR
STARTCHAR Z
ENCODING 90
SWIDTH 375 0
DWIDTH 6 0
BBX 5 5 0 0
BITMAP
F8
10
20
40
F8
ENDCHAR
STARTCHAR bracketleft
ENCODING 91
SWIDTH 375 0
DWIDTH 6 0
BBX 2 5 3 0
BITMAP
C0
80
80
80
C0
ENDCHAR
STARTCHAR backslash
ENCODING 92
SWIDTH 375 0
DWIDTH 6 0
BBX 3 5 0 0
BITMAP
80
80
40
20
20
ENDCHAR
STARTCHAR bracketright
ENCODING 93
SWIDTH 375 0
DWIDTH 6 0
BBX 2 5 0 0
BITMAP
C0
40
40
40
C0
ENDCHAR
STARTCHAR asciicircum
ENCODING 94
SWIDTH 375 0
DWIDTH 6 0
BBX 3 2 0 3
BITMAP
40
A0
ENDCHAR
STARTCHAR underscore
ENCODING 95
SWIDTH 375 0
DWIDTH 6 0
BBX 5 1 0 0
BITMAP
F8
ENDCHAR
STARTCHAR grave
ENCODING 96
SWIDTH 375 0
DWIDTH 6 0
BBX 2 2 0 3
BITMAP
80
40
ENDCHAR
STARTCHAR braceleft
ENCODING 123
SWIDTH 375 0
DWIDTH 6 0
BBX 3 5 0 0
BITMAP
60
40
80
40
60
ENDCHAR
STARTCHAR bar
ENCODING 124
SWIDTH 375 0
DWIDTH 6 0
BBX 1 5 2 0
BITMAP
80
80
80
80
80
ENDCHAR
STARTCHAR braceright
ENCODING 125
SWIDTH 375 0
DWIDTH 6 0
BBX 3 5 0 0
BITMAP
C0
40
20
40
C0
ENDCHAR
STARTCHAR asciitilde
ENCODING 126
SWIDTH 375 0
DWIDTH 6 0
BBX 5 2 0 2
BITMAP
68
B0
ENDCHAR
STARTCHAR uni00A0
ENCODING 160
SWIDTH 375 0
DWIDTH 6 0
BBX 1 1 0 0
BITMAP
00
ENDCHAR
STARTCHAR exclamdown
ENCODING 161
SWIDTH 375 0
DWIDTH 6 0
BBX 1 5 2 0
BITMAP
80
00
80
80
80
ENDCHAR
STARTCHAR yen
ENCODING 165
SWIDTH 375 0
DWIDTH 6 0
BBX 5 5 0 0
BITMAP
88
50
20
70
20
ENDCHAR
STARTCHAR brokenbar
ENCODING 166
SWIDTH 375 0
DWIDTH 6 0
BBX 1 5 2 0
BITMAP
80
80
00
80
80
ENDCHAR
STARTCHAR dieresis
ENCODING 168
SWIDTH 375 0
DWIDTH 6 0
BBX 3 1 0 4
BITMAP
A0
ENDCHAR
STARTCHAR copyright
ENCODING 169
SWIDTH 752 0
DWIDTH 12 0
BBX 11 5 0 0
BITMAP
DF60
9120
9020
9120
DF60
ENDCHAR
STARTCHAR .notdef
ENCODING -1
SWIDTH 375 0
DWIDTH 6 0
BBX 5 11 1 0
BITMAP
F8
88
88
88
88
88
88
88
88
88
F8
ENDCHAR
STARTCHAR .null
ENCODING -1
SWIDTH 375 0
DWIDTH 6 0
BBX 1 1 0 0
BITMAP
00
ENDCHAR
STARTCHAR nonmarkingreturn
ENCODING -1
SWIDTH 375 0
DWIDTH 6 0
BBX 1 1 0 0
BITMAP
00
ENDCHAR
ENDFONT
